<svg id="Capa_1" enable-background="new 0 0 512 512" height="512" viewBox="0 0 512 512" width="512" xmlns="http://www.w3.org/2000/svg"><g><path d="m437.02 74.98c-48.353-48.351-112.64-74.98-181.02-74.98s-132.667 26.629-181.02 74.98c-48.351 48.353-74.98 112.64-74.98 181.02s26.629 132.667 74.98 181.02c48.353 48.351 112.64 74.98 181.02 74.98s132.667-26.629 181.02-74.98c48.351-48.353 74.98-112.64 74.98-181.02s-26.629-132.667-74.98-181.02zm-181.022 254.008-69.778-50.698 26.654-82.03h86.249l26.653 82.031zm79.526-20.697 33.378 102.727-87.384-63.489zm-105.046 39.238-87.386 63.489 33.38-102.728zm-69.777-87.779-87.384-63.489h108.013zm61.921-93.489 33.378-102.722 33.376 102.721h-66.754zm108.045 30h108.016l-87.387 63.49zm132.869-30h-142.617l-43.959-135.295c52.454 4.793 101.14 27.522 138.846 65.228 20.496 20.496 36.556 44.241 47.73 70.067zm-367.342-70.067c37.706-37.706 86.392-60.435 138.846-65.228l-43.962 135.295h-142.614c11.174-25.826 27.234-49.571 47.73-70.067zm-66.194 159.806c0-17.068 1.882-33.847 5.543-50.101l115.409 83.851-44.181 135.969c-3.61-3.183-7.144-6.479-10.578-9.912-42.685-42.687-66.193-99.44-66.193-159.807zm110.215 194.19 115.783-84.12 115.784 84.123c-34.642 20.737-74.361 31.807-115.782 31.807-41.423 0-81.143-11.071-115.785-31.81zm275.591-34.384c-3.435 3.435-6.971 6.732-10.583 9.917l-44.18-135.972 115.413-83.852c3.662 16.254 5.544 33.033 5.544 50.101 0 60.367-23.508 117.12-66.194 159.806z"/></g></svg>