<?xml version="1.0"?>
<svg xmlns="http://www.w3.org/2000/svg" xmlns:xlink="http://www.w3.org/1999/xlink" xmlns:svgjs="http://svgjs.com/svgjs" version="1.1" width="512" height="512" x="0" y="0" viewBox="0 0 97.75 97.75" style="enable-background:new 0 0 512 512" xml:space="preserve" class=""><g><g xmlns="http://www.w3.org/2000/svg"><path d="m48.875 0c-26.993 0-48.875 21.882-48.875 48.875s21.882 48.875 48.875 48.875 48.875-21.882 48.875-48.875-21.882-48.875-48.875-48.875zm29.555 35.841c.023.577.035 1.155.035 1.736 0 20.878-15.887 42.473-42.473 42.473-8.127 0-16.04-2.319-22.883-6.708-.143-.091-.202-.268-.145-.427.057-.158.218-.256.383-.237 1.148.137 2.322.205 3.487.205 6.323 0 12.309-1.955 17.372-5.664-6.069-.512-11.285-4.619-13.161-10.478-.039-.122-.011-.255.073-.351.085-.096.215-.138.339-.115 1.682.319 3.392.34 5.04.072-6.259-1.945-10.658-7.808-10.658-14.483l.002-.194c.003-.127.072-.243.182-.306.109-.064.245-.065.355-.003 1.632.906 3.438 1.488 5.291 1.711-3.597-2.867-5.709-7.213-5.709-11.862 0-2.682.71-5.318 2.054-7.623.06-.103.166-.169.284-.178.119-.012.234.04.309.132 7.362 9.03 18.191 14.59 29.771 15.305-.193-.972-.291-1.974-.291-2.985 0-8.361 6.802-15.162 15.162-15.162 4.11 0 8.082 1.689 10.929 4.641 3.209-.654 6.266-1.834 9.09-3.508.129-.077.291-.065.41.028.116.094.164.25.118.394-.957 2.993-2.823 5.604-5.33 7.489 2.361-.411 4.652-1.105 6.831-2.072.146-.067.319-.025.424.098.104.124.113.301.023.435-1.985 2.971-4.445 5.54-7.314 7.637z" fill="#a10202" data-original="#000000" class=""/></g><g xmlns="http://www.w3.org/2000/svg"/><g xmlns="http://www.w3.org/2000/svg"/><g xmlns="http://www.w3.org/2000/svg"/><g xmlns="http://www.w3.org/2000/svg"/><g xmlns="http://www.w3.org/2000/svg"/><g xmlns="http://www.w3.org/2000/svg"/><g xmlns="http://www.w3.org/2000/svg"/><g xmlns="http://www.w3.org/2000/svg"/><g xmlns="http://www.w3.org/2000/svg"/><g xmlns="http://www.w3.org/2000/svg"/><g xmlns="http://www.w3.org/2000/svg"/><g xmlns="http://www.w3.org/2000/svg"/><g xmlns="http://www.w3.org/2000/svg"/><g xmlns="http://www.w3.org/2000/svg"/><g xmlns="http://www.w3.org/2000/svg"/></g></svg>
